<svg xmlns:dc="http://purl.org/dc/elements/1.1/" xmlns:cc="http://creativecommons.org/ns#" xmlns:rdf="http://www.w3.org/1999/02/22-rdf-syntax-ns#" xmlns:svg="http://www.w3.org/2000/svg" xmlns="http://www.w3.org/2000/svg" xmlns:sodipodi="http://sodipodi.sourceforge.net/DTD/sodipodi-0.dtd" xmlns:inkscape="http://www.inkscape.org/namespaces/inkscape" version="1.1" x="0px" y="0px" viewBox="0 0 100 125"><g transform="translate(0,-952.36218)"><path style="font-size:medium;font-style:normal;font-variant:normal;font-weight:normal;font-stretch:normal;text-indent:0;text-align:start;text-decoration:none;line-height:normal;letter-spacing:normal;word-spacing:normal;text-transform:none;direction:ltr;block-progression:tb;writing-mode:lr-tb;text-anchor:start;baseline-shift:baseline;opacity:1;color:#000000;fill:#000000;fill-opacity:1;stroke:none;stroke-width:5.99999952000000030;marker:none;visibility:visible;display:inline;overflow:visible;enable-background:accumulate;font-family:Sans;-inkscape-font-specification:Sans" d="M 55.90625 17 A 3.0002998 3.0002998 0 0 0 54.5625 17.375 L 31.25 30 L 12 30 C 8.1738913 30 5 33.17389 5 37 L 5 63 C 5 66.8261 8.1738913 70 12 70 L 31.25 70 L 54.5625 82.625 A 3.0002998 3.0002998 0 0 0 59 80 L 59 20 A 3.0002998 3.0002998 0 0 0 55.90625 17 z M 53 25.03125 L 53 74.96875 L 33.4375 64.375 A 3.0002998 3.0002998 0 0 0 32 64 L 12 64 C 11.394112 64 11 63.6059 11 63 L 11 37 C 11 36.39411 11.394112 36 12 36 L 32 36 A 3.0002998 3.0002998 0 0 0 33.4375 35.625 L 53 25.03125 z M 67.65625 34.96875 A 3.0002998 3.0002998 0 0 0 65.875 40.09375 L 75.75 50 L 65.875 59.875 A 3.0002998 3.0002998 0 1 0 70.125 64.09375 L 80 54.21875 L 89.875 64.09375 A 3.0002998 3.0002998 0 1 0 94.125 59.875 L 84.25 50 L 94.125 40.09375 A 3.0002998 3.0002998 0 0 0 91.65625 34.96875 A 3.0002998 3.0002998 0 0 0 89.875 35.875 L 80 45.75 L 70.125 35.875 A 3.0002998 3.0002998 0 0 0 67.65625 34.96875 z " transform="translate(0,952.36218)"/></g><text x="0" y="115" fill="#000000" font-size="5px" font-weight="bold" font-family="'Helvetica Neue', Helvetica, Arial-Unicode, Arial, Sans-serif">Created by cathy moser</text><text x="0" y="120" fill="#000000" font-size="5px" font-weight="bold" font-family="'Helvetica Neue', Helvetica, Arial-Unicode, Arial, Sans-serif">from the Noun Project</text></svg>