<svg xmlns:x="http://ns.adobe.com/Extensibility/1.0/" xmlns:i="http://ns.adobe.com/AdobeIllustrator/10.0/" xmlns:graph="http://ns.adobe.com/Graphs/1.0/" xmlns="http://www.w3.org/2000/svg" xmlns:xlink="http://www.w3.org/1999/xlink" version="1.1" x="0px" y="0px" viewBox="0 0 100 125" style="enable-background:new 0 0 100 100;" xml:space="preserve"><switch><foreignObject requiredExtensions="http://ns.adobe.com/AdobeIllustrator/10.0/" x="0" y="0" width="1" height="1"/><g i:extraneous="self"><g><path d="M45.4,18.7l-22,16.9H6.8c-2.4,0-4.3,1.9-4.3,4.3v20.3c0,2.4,1.9,4.3,4.3,4.3h16.7l22,16.9c2.8,2.2,6.9,0.2,6.9-3.4V22.1     C52.3,18.5,48.2,16.5,45.4,18.7z"/><path d="M65.5,38.2c-1.2-1.7-3.6-2.1-5.3-0.9c-1.7,1.2-2.1,3.6-0.9,5.3c1.5,2.2,2.4,4.7,2.4,7.4c0,2.7-0.8,5.2-2.4,7.4     c-1.2,1.7-0.8,4.1,0.9,5.3c0.7,0.5,1.4,0.7,2.2,0.7c1.2,0,2.4-0.6,3.1-1.6c2.5-3.5,3.8-7.5,3.8-11.8S68,41.6,65.5,38.2z"/><path d="M75.4,27.9c-1.3-1.6-3.7-1.8-5.4-0.5c-1.6,1.3-1.8,3.7-0.5,5.4c4,4.8,6.2,10.9,6.2,17.2s-2.2,12.4-6.2,17.2     c-1.3,1.6-1.1,4,0.5,5.4c0.7,0.6,1.6,0.9,2.4,0.9c1.1,0,2.2-0.5,2.9-1.4c5.2-6.2,8-14,8-22.1S80.6,34.1,75.4,27.9z"/><path d="M85.3,17.8c-1.4-1.6-3.8-1.7-5.4-0.3c-1.6,1.4-1.7,3.8-0.3,5.4C86.3,30.4,89.9,40,89.9,50s-3.6,19.6-10.3,27.1     c-1.4,1.6-1.2,4,0.3,5.4c0.7,0.6,1.6,1,2.5,1c1.1,0,2.1-0.4,2.8-1.3c7.8-8.9,12.2-20.3,12.2-32.2S93.2,26.7,85.3,17.8z"/></g></g></switch><text x="0" y="115" fill="#000000" font-size="5px" font-weight="bold" font-family="'Helvetica Neue', Helvetica, Arial-Unicode, Arial, Sans-serif">Created by Alice Design</text><text x="0" y="120" fill="#000000" font-size="5px" font-weight="bold" font-family="'Helvetica Neue', Helvetica, Arial-Unicode, Arial, Sans-serif">from the Noun Project</text></svg>