<svg xmlns="http://www.w3.org/2000/svg" viewBox="0 0 48 48" xmlns:xlink="http://www.w3.org/1999/xlink" xml:space="preserve" width="100%" height="100%"><path d="m28.48 24.02 4.64 4.64c.56-1.44.88-3.02.88-4.66s-.32-3.18-.86-4.62zm10.58-10.6-2.52 2.52c1.26 2.42 1.96 5.14 1.96 8.04s-.72 5.64-1.96 8.04l2.4 2.4a19.9 19.9 0 0 0 3.08-10.62c-.02-3.78-1.1-7.34-2.96-10.38m-7.64 2L20 4h-2v15.18L8.82 10 6 12.82 17.18 24 6 35.18 8.82 38 18 28.82V44h2l11.42-11.42-8.6-8.58zM22 11.66l3.76 3.76L22 19.18zm3.76 20.92L22 36.34v-7.52z"></path></svg>