<svg xmlns="http://www.w3.org/2000/svg" viewBox="0 0 48 48" xmlns:xlink="http://www.w3.org/1999/xlink" xml:space="preserve" width="100%" height="100%"><path d="M32 8h-4V4h-8v4h-4a2.675 2.675 0 0 0-2.667 2.667V40c0 1.467 1.2 2.667 2.667 2.667h16c1.467 0 2.667-1.2 2.667-2.667V10.667C34.667 9.2 33.467 8 32 8m-5.867 28.8h-4.266v-4.267h4.266zm2.987-13.04s-.853.933-1.493 1.573c-1.067 1.067-1.84 2.987-1.84 4h-3.92c0-1.84 1.386-3.84 2.426-4.88l2.08-2.106c.614-.614.987-1.44.987-2.347a3.333 3.333 0 0 0-6.667 0h-3.36a6.667 6.667 0 0 1 13.334 0 5.3 5.3 0 0 1-1.547 3.76" style="fill: rgb(255, 100, 0)"></path></svg>